<svg xmlns="http://www.w3.org/2000/svg" viewBox="0 0 16.99 13.55"><defs><style>.cls-1{font-size:3px;font-family:OCRAExtended, OCR A Extended;}.cls-1,.cls-2{fill:#1d1d1b;}</style></defs><g id="Слой_2" data-name="Слой 2"><g id="Слой_1-2" data-name="Слой 1"><text class="cls-1" transform="translate(0.68 13.02)">practicum</text><text class="cls-1" transform="translate(6.01 10.56)">yandex</text><path class="cls-2" d="M8.07,0H5A10.19,10.19,0,0,0,3.16.12,3.74,3.74,0,0,0,.73,1.72,3.88,3.88,0,0,0,0,4,3.84,3.84,0,0,0,.75,6.32,3.81,3.81,0,0,0,3.11,7.89,4.61,4.61,0,0,0,3.78,8C4,8,4.4,8,5.07,8h3L8,4.13ZM4.48,7.62a7.36,7.36,0,0,1-1.13-.06,3.37,3.37,0,0,1-.79-.25A3.47,3.47,0,0,1,.91,5.86,3.51,3.51,0,0,1,.39,4,3.52,3.52,0,0,1,1,2,3.66,3.66,0,0,1,4.25.37h.23l0,4.71Zm2.79,0h-1v-1h1Zm0-1.25h-1v-1h1Zm0-1.26h-1v-1h1Zm0-1.26h-1v-1h1Zm0-1.26h-1v-1h1Zm0-1.26h-1v-1h1Z"/><path class="cls-2" d="M16.3,2A3.29,3.29,0,0,0,15.11.64a3.78,3.78,0,0,0-1.42-.5A17,17,0,0,0,11.2,0H8.52V1.56l0,2,0,4.12V8H12.1V6.56a8.1,8.1,0,0,0,1.11.1A3.59,3.59,0,0,0,15,6.2a3,3,0,0,0,1.22-1.31,3.2,3.2,0,0,0,.37-1.5A3.06,3.06,0,0,0,16.3,2ZM11.67,7.62h-1v-1h1Zm0-1.25h-1v-1h1Zm0-1.26h-1v-1h1Zm0-1.26h-1v-1h1Zm0-1.26h-1v-1h1Zm0-1.26h-1v-1h1Zm3.87,4a2.64,2.64,0,0,1-1,.74,3,3,0,0,1-1.25.27,4.34,4.34,0,0,1-1.2-.13l0-1.45,0-3.92V.4h.17a6.26,6.26,0,0,1,2,.27,2.77,2.77,0,0,1,1.27.86,2.82,2.82,0,0,1,.69,1.86A2.78,2.78,0,0,1,15.54,5.28Z"/></g></g></svg>